<svg height="223" viewBox="0 0 200 223" width="200" xmlns="http://www.w3.org/2000/svg" xmlns:xlink="http://www.w3.org/1999/xlink"><defs><path id="a" d="m140.006484 18.4743127 70 40.4378178c9.278378 5.3599623 14.993516 15.2617247 14.993516 25.9770173v80.9055892c0 10.715293-5.715138 20.617055-14.993516 25.977017l-70 40.437818c-9.285327 5.363977-20.727641 5.363977-30.012968 0l-70.0000002-40.437818c-9.2783781-5.359962-14.9935158-15.261724-14.9935158-25.977017v-80.9055892c0-10.7152926 5.7151377-20.617055 14.9935158-25.9770173l70.0000002-40.4378178c9.285327-5.3639769 20.727641-5.3639769 30.012968 0z"/><mask id="b" fill="#fff"><use fill="none" xlink:href="#a"/></mask></defs><g fill="none" fill-rule="evenodd" transform="translate(-25 -14)"><use fill="#000" xlink:href="#a"/><path d="m69.9507367 123.367423c-5.3018236-2.606223-8.9507367-8.060699-8.9507367-14.367423 0-8.836556 7.163444-16 16-16s16 7.163444 16 16c0 4.191327-1.6116062 8.006243-4.2489445 10.858875-.5298457 3.943249-.1278567 6.983974.4632449 10.478131.9526436 5.631328 5.2426172 10.157599 11.3177496 10.157599 6.075132 0 8.261121-3.223533 11.752903-8.376922 2.197498-3.243204 9.971053-15.707564 15.829794-26.184276 1.985484-3.550481 5.565672-9.421845 6.322815-12.4271404.315051-1.25052.262985-2.5631556.153544-4.1823225-.385149-1.3753669-.591106-2.8256036-.591106-4.3239441 0-1.4702468.198306-2.8941767.56963-4.2465014.02205-.2260805.046306-.4561097.07292-.690209.076019-.6686567.414163-1.3607455.972352-2.0764829 2.599181-5.3213368 8.064081-8.9868067 14.385098-8.9868067 8.836556 0 16 7.163444 16 16 0 8.2962036-6.314146 15.117659-14.398967 15.920897-1.902538 1.247211-3.555648 2.534257-4.315152 3.800802-6.565987 10.949406-12.713705 19.380884-15.407528 26.357549-1.269816 3.288665-.878353 5.28132-.878353 6.420752 0 6.903559 5.596441 12.5 12.5 12.5 3.334826 0 11.691056-2.804162 19.439256-6.481504 1.775608-.842714 3.485656-2.485241 5.094338-4.18817 2.288599-6.038041 8.126244-10.330326 14.966406-10.330326 8.836556 0 16 7.163444 16 16 0 6.367941-3.720094 11.867008-9.105591 14.442509-2.583961 1.763658-6.023148 1.736573-8.053653 1.516139-1.482079-.106115-2.908296-.414096-4.251303-.896594-3.730555-.961892-7.350151-1.878199-12.404737.101574-17.308779 6.77948-33.627705 14.307432-37.844124 16.889843-1.913442 1.171916-9.147994 3.789523-15.145967 9.019645-7.219032 6.294864-13.7102124 16.423397-13.7102124 25.925495 0 8.759628 2.5009074 14.843096 7.2050364 18.724575l-61.366746-35.450533c2.539904.712819 5.0009726 1.093895 7.2573422 1.093895 13.9037747 0 26.8452849-12.546841 26.8452849-29.943811 0-10.644147-2.7636135-34.787749-7.6385274-41.433395-.2842695-.387526-.5593156-.944953-.836066-1.621919zm41.6709393 110.717156c8.329666 4.151677 18.120092 4.196805 26.481514.135383-4.376289 1.344579-8.495403 2.016869-12.357343 2.016869-5.479654 0-10.212001-.678726-14.124171-2.152252z" fill="#fff" mask="url(#b)"/></g></svg>